# xmcd
#
# Track frame offsets:
#	162
#	15987
#	33420
#	42520
#	61367
#	73007
#	85972
#	100032
#	111587
#	122827
#	140762
#	153357
#
# Disc length: 2456 seconds
#
# Revision: 0
# Processed by: cddbd v1.4PL0 Copyright (c) Steve Scherf et al.
# Submitted via: dBpowerAMP V4.0
#
DISCID=a509960c
DTITLE=Gene Tobin - Tell It Like It Is
DYEAR=1900
DGENRE=Country
TTITLE0=Rodeo
TTITLE1=Shiner Bocked Again
TTITLE2=Roll On
TTITLE3=Ride the Wind
TTITLE4=Visit With An Angel
TTITLE5=Working For the Bar
TTITLE6=Just A Longhaired Redneck
TTITLE7=Ruined In Gruene
TTITLE8=Today the Bottle's Keeping Me Alive
TTITLE9=I Love Everything About You
TTITLE10=How Do You Know When You're In Love
TTITLE11=Sipapu
EXTD=
EXTT0=
EXTT1=
EXTT2=
EXTT3=
EXTT4=
EXTT5=
EXTT6=
EXTT7=
EXTT8=
EXTT9=
EXTT10=
EXTT11=
PLAYORDER=
